<svg xmlns="http://www.w3.org/2000/svg" viewBox="0 0 512 512" width="100%" height="100%">
  <defs>
    <linearGradient id="grad" x1="0%" y1="0%" x2="100%" y2="100%">
      <stop offset="0%" stop-color="#0f172a" />
      <stop offset="100%" stop-color="#1e293b" />
    </linearGradient>
    <linearGradient id="glow" x1="0%" y1="0%" x2="100%" y2="100%">
      <stop offset="0%" stop-color="#3b82f6" />
      <stop offset="100%" stop-color="#10b981" />
    </linearGradient>
    <filter id="shadow" x="-10%" y="-10%" width="120%" height="120%">
      <feDropShadow dx="0" dy="8" stdDeviation="12" flood-color="#10b981" flood-opacity="0.3" />
    </filter>
  </defs>
  <!-- Background Rounded Rect -->
  <rect width="512" height="512" rx="128" fill="url(#grad)" />
  <circle cx="256" cy="256" r="180" fill="none" stroke="url(#glow)" stroke-width="8" opacity="0.15" />
  
  <!-- Fingerprint SVG Path (Stylized modern neon arcs) -->
  <g fill="none" stroke="url(#glow)" stroke-width="14" stroke-linecap="round" filter="url(#shadow)">
    <!-- Core loops -->
    <path d="M256,210 A46,46 0 0,1 302,256 C302,290 286,310 286,330" />
    <path d="M220,256 A36,36 0 0,1 256,220 A36,36 0 0,1 292,256 C292,280 276,296 276,320 M276,350 L276,370" />
    <path d="M202,256 A54,54 0 0,1 256,202 A54,54 0 0,1 310,256 C310,300 290,320 290,360" />
    
    <!-- Outer ridges -->
    <path d="M184,256 A72,72 0 0,1 256,184 A72,72 0 0,1 328,256 C328,320 300,340 300,390" />
    <path d="M166,256 A90,90 0 0,1 256,166 A90,90 0 0,1 346,256 C346,340 316,360 316,420" />
    
    <!-- Left loop ridges -->
    <path d="M148,256 A108,108 0 0,1 256,148 A108,108 0 0,1 364,256" />
    
    <!-- Bottom extra ridges -->
    <path d="M216,390 A40,40 0 0,1 256,350 A40,40 0 0,1 262,350" />
    <path d="M198,420 A70,70 0 0,1 256,380" />
  </g>
</svg>
